<?xml version="1.0" encoding="iso-8859-1"?>
<!-- Uploaded to: SVG Repo, www.svgrepo.com, Generator: SVG Repo Mixer Tools -->
<svg version="1.1" id="Layer_1" xmlns="http://www.w3.org/2000/svg" xmlns:xlink="http://www.w3.org/1999/xlink" 
	 viewBox="0 0 512 512" xml:space="preserve">
<path style="fill:#495E77;" d="M500.711,262.343h-20.006c-6.235,0-11.289,5.054-11.289,11.289v77.825
	c0,10.012,8.116,18.128,18.128,18.128h13.168c6.235,0,11.289-5.054,11.289-11.289v-84.663
	C512,267.397,506.946,262.343,500.711,262.343z"/>
<path style="fill:#384C60;" d="M512,334.992h-42.586v23.305c0,6.235,5.054,11.289,11.289,11.289h20.006
	c6.235,0,11.289-5.054,11.289-11.289v-23.305H512z"/>
<path style="fill:#66CC92;" d="M469.994,209.562v202.69H16.643V148.56c0-23.501,19.05-42.551,42.551-42.551h307.246
	c31.204,0,59.18,13.803,78.161,35.632c3.759,4.313,7.161,8.937,10.159,13.838C464.424,171.22,469.994,189.739,469.994,209.562z"/>
<path style="fill:#8FE5B2;" d="M366.437,106.01h-18.45c57.185,0,103.553,46.368,103.553,103.553v202.69h18.45v-202.69
	C469.991,152.378,423.622,106.01,366.437,106.01z"/>
<path style="fill:#51AD77;" d="M94.939,106.01H59.191c-23.501,0-42.551,19.05-42.551,42.551v263.692h23.905h11.843V148.561
	C52.388,125.06,71.438,106.01,94.939,106.01z"/>
<path style="fill:#F2D546;" d="M469.991,329.226v83.027H16.64V260.037h384.161C439.017,260.037,469.991,291.01,469.991,329.226z"/>
<path style="fill:#89E8E8;" d="M469.991,209.563v22.798H104.752c-11.578,0-22.048-4.693-29.636-12.27
	c-7.576-7.588-12.27-18.058-12.27-29.636c0-23.144,18.762-41.894,41.906-41.894h345.369
	C462.622,165.674,469.991,186.765,469.991,209.563z"/>
<path style="fill:#F9E480;" d="M469.991,329.226v83.027h-18.45c2.266-99.811-50.739-152.216-50.739-152.216
	C460.685,266.956,469.991,311.052,469.991,329.226z"/>
<path style="fill:#BEF4F2;" d="M450.122,148.561h-19.604c12.5,17.113,19.869,38.204,19.869,61.002v22.798h19.604v-22.798
	C469.991,186.765,462.622,165.674,450.122,148.561z"/>
<circle style="fill:#495E77;" cx="366.495" cy="412.252" r="65.73"/>
<rect x="16.64" y="261.189" style="fill:#D6BA30;" width="33.522" height="151.063"/>
<path style="fill:#495E77;" d="M55.323,370.739c-9.233,11.319-14.777,25.767-14.777,41.514c0,36.301,29.428,65.73,65.73,65.73
	s65.73-29.428,65.73-65.73c0-15.746-5.543-30.194-14.777-41.514H55.323z"/>
<path style="fill:#EF8D43;" d="M177.012,82.45H95.139l-0.104-0.265L88.3,64.507L76.688,34.017c0,0,39.15,1.661,79.21,30.489
	c6.988,5.016,14.011,10.863,20.849,17.678L177.012,82.45z"/>
<g>
	<polygon style="fill:#BEF4F2;" points="283.099,148.557 263.496,148.557 243.892,232.361 263.496,232.361 	"/>
	<polygon style="fill:#BEF4F2;" points="344.216,148.557 330.378,148.557 310.775,232.361 324.613,232.361 	"/>
	<polygon style="fill:#BEF4F2;" points="209.297,148.557 166.631,148.557 147.027,232.361 189.694,232.361 	"/>
	<polygon style="fill:#BEF4F2;" points="400.721,148.557 358.054,148.557 338.45,232.361 381.117,232.361 	"/>
</g>
<g>
	<path style="fill:#F2D546;" d="M469.994,225.441v13.838h-365.25c-26.915,0-48.813-21.898-48.813-48.824
		c0-26.915,21.898-48.813,48.813-48.813h339.857c3.759,4.313,7.161,8.937,10.159,13.838H104.744
		c-19.281,0-34.975,15.694-34.975,34.975c0,19.292,15.694,34.987,34.975,34.987H469.994z"/>
	<rect x="297.514" y="148.56" style="fill:#F2D546;" width="10.378" height="83.8"/>
	<rect x="137.606" y="148.56" style="fill:#F2D546;" width="10.378" height="83.8"/>
	<rect x="217.565" y="148.56" style="fill:#F2D546;" width="10.378" height="83.8"/>
	
		<rect x="361.538" y="185.264" transform="matrix(-0.1892 -0.9819 0.9819 -0.1892 293.6751 623.3961)" style="fill:#F2D546;" width="85.342" height="10.378"/>
</g>
<g>
	<circle style="fill:#E6E6E6;" cx="366.495" cy="412.252" r="28.454"/>
	<circle style="fill:#E6E6E6;" cx="106.275" cy="412.252" r="28.454"/>
</g>
<g>
	<path style="fill:#CCCCCC;" d="M96.272,412.253c0-12.484,8.043-23.083,19.229-26.916c-2.894-0.992-5.995-1.537-9.225-1.537
		c-15.715,0-28.454,12.739-28.454,28.454s12.739,28.454,28.454,28.454c3.23,0,6.331-0.545,9.225-1.537
		C104.317,435.336,96.272,424.737,96.272,412.253z"/>
	<path style="fill:#CCCCCC;" d="M356.498,412.253c0-12.484,8.043-23.083,19.229-26.916c-2.894-0.992-5.995-1.537-9.225-1.537
		c-15.715,0-28.454,12.739-28.454,28.454s12.739,28.454,28.454,28.454c3.23,0,6.331-0.545,9.225-1.537
		C364.542,435.336,356.498,424.737,356.498,412.253z"/>
</g>
<g>
	<path style="fill:#384C60;" d="M366.501,447.625c-19.504,0-35.373-15.869-35.373-35.373s15.869-35.373,35.373-35.373
		c19.504,0,35.373,15.869,35.373,35.373S386.005,447.625,366.501,447.625z M366.501,390.718c-11.874,0-21.535,9.66-21.535,21.535
		s9.66,21.535,21.535,21.535c11.875,0,21.535-9.66,21.535-21.535S378.376,390.718,366.501,390.718z"/>
	<path style="fill:#384C60;" d="M106.276,447.625c-19.504,0-35.373-15.869-35.373-35.373s15.869-35.373,35.373-35.373
		s35.373,15.869,35.373,35.373S125.78,447.625,106.276,447.625z M106.276,390.718c-11.874,0-21.535,9.66-21.535,21.535
		s9.66,21.535,21.535,21.535s21.535-9.66,21.535-21.535S118.15,390.718,106.276,390.718z"/>
</g>
<ellipse style="fill:#FFFFFF;" cx="453.812" cy="334.668" rx="16.19" ry="22.229"/>
<path style="fill:#F2F2F2;" d="M451.843,334.671c0-8.767,3.705-16.327,9.073-19.946c-2.148-1.448-4.556-2.283-7.111-2.283
	c-8.938,0-16.185,9.953-16.185,22.229s7.246,22.229,16.185,22.229c2.555,0,4.962-0.836,7.111-2.283
	C455.55,350.998,451.843,343.44,451.843,334.671z"/>
<g>
	<path style="fill:#E6E6E6;" d="M480.677,397.572h-33.057c-4.776,0-8.649-3.872-8.649-8.649c0-4.776,3.872-8.649,8.649-8.649h33.057
		c4.776,0,8.649,3.872,8.649,8.649C489.326,393.7,485.453,397.572,480.677,397.572z"/>
	<path style="fill:#E6E6E6;" d="M27.872,397.572H8.649C3.872,397.572,0,393.7,0,388.923c0-4.776,3.872-8.649,8.649-8.649h19.223
		c4.776,0,8.649,3.872,8.649,8.649C36.52,393.7,32.648,397.572,27.872,397.572z"/>
</g>
<path style="fill:#D67838;" d="M176.747,82.185H95.035L88.3,64.507h67.598C162.886,69.523,169.909,75.37,176.747,82.185z"/>
<path style="fill:#EF8D43;" d="M428.396,91.1H22.486c-4.776,0-8.649-3.872-8.649-8.649s3.872-8.649,8.649-8.649h405.91
	c4.776,0,8.649,3.872,8.649,8.649S433.173,91.1,428.396,91.1z"/>
</svg>